<svg width="28" height="28" viewBox="0 0 28 28" fill="none" xmlns="http://www.w3.org/2000/svg">
<path d="M17.4986 6.82937C17.4986 8.87241 15.8423 10.5286 13.7993 10.5286C11.7563 10.5286 10.1001 8.87241 10.1001 6.82937C10.1001 4.78633 11.7563 3.13013 13.7993 3.13013C15.8423 3.13013 17.4986 4.78633 17.4986 6.82937Z" stroke="black" stroke-opacity="0.77" stroke-width="1.29888"/>
<path d="M20.9133 19.3499C20.9133 20.5742 20.22 21.7632 18.9372 22.6795C17.656 23.5947 15.8422 24.1874 13.7994 24.1874C11.7566 24.1874 9.94288 23.5947 8.66166 22.6795C7.37879 21.7632 6.68549 20.5742 6.68549 19.3499C6.68549 18.1256 7.37879 16.9367 8.66166 16.0204C9.94288 15.1051 11.7566 14.5125 13.7994 14.5125C15.8422 14.5125 17.656 15.1051 18.9372 16.0204C20.22 16.9367 20.9133 18.1256 20.9133 19.3499Z" stroke="black" stroke-opacity="0.77" stroke-width="1.29888"/>
</svg>
