<svg width="28" height="28" viewBox="0 0 28 28" fill="none" xmlns="http://www.w3.org/2000/svg">
<path d="M17.4185 6.82937C17.4185 8.87241 15.7623 10.5286 13.7193 10.5286C11.6763 10.5286 10.02 8.87241 10.02 6.82937C10.02 4.78633 11.6763 3.13013 13.7193 3.13013C15.7623 3.13013 17.4185 4.78633 17.4185 6.82937Z" stroke="#FF5A60" stroke-width="1.29888"/>
<path d="M20.8333 19.3499C20.8333 20.5742 20.14 21.7632 18.8571 22.6795C17.5759 23.5947 15.7621 24.1874 13.7193 24.1874C11.6766 24.1874 9.8628 23.5947 8.58158 22.6795C7.29871 21.7632 6.60541 20.5742 6.60541 19.3499C6.60541 18.1256 7.29871 16.9367 8.58158 16.0204C9.8628 15.1051 11.6766 14.5125 13.7193 14.5125C15.7621 14.5125 17.5759 15.1051 18.8571 16.0204C20.14 16.9367 20.8333 18.1256 20.8333 19.3499Z" stroke="#FF5A60" stroke-width="1.29888"/>
</svg>
