<svg width="24" height="24" viewBox="0 0 24 24" fill="none" xmlns="http://www.w3.org/2000/svg">
<g id="eye-off-outline">
<path id="Vector" d="M20.25 20.9984C20.1515 20.9986 20.0539 20.9792 19.9629 20.9415C19.8719 20.9037 19.7893 20.8484 19.7198 20.7785L3.2198 4.27854C3.08509 4.13675 3.01109 3.94793 3.0136 3.75236C3.0161 3.55679 3.0949 3.36993 3.23321 3.23163C3.37151 3.09333 3.55836 3.01453 3.75393 3.01202C3.94951 3.00952 4.13832 3.08351 4.28011 3.21823L20.7801 19.7182C20.8849 19.8231 20.9563 19.9567 20.9852 20.1022C21.0141 20.2476 20.9993 20.3984 20.9425 20.5354C20.8858 20.6724 20.7897 20.7895 20.6665 20.8719C20.5432 20.9543 20.3982 20.9983 20.25 20.9984ZM11.984 17.9984C10.0392 17.9984 8.16371 17.4228 6.40965 16.2875C4.81262 15.2562 3.37496 13.7792 2.25183 12.0218V12.0181C3.18652 10.6789 4.21027 9.54636 5.30996 8.63323C5.31991 8.62491 5.32802 8.61462 5.33379 8.60301C5.33956 8.5914 5.34285 8.57872 5.34347 8.56576C5.34409 8.55281 5.34201 8.53987 5.33737 8.52776C5.33273 8.51566 5.32563 8.50464 5.31652 8.49542L4.38277 7.56307C4.36618 7.54634 4.34389 7.53648 4.32036 7.53543C4.29682 7.53439 4.27375 7.54225 4.25574 7.55745C3.08762 8.54182 2.0034 9.74932 1.01761 11.1631C0.848014 11.4065 0.754608 11.6948 0.749266 11.9915C0.743924 12.2881 0.826888 12.5796 0.987615 12.829C2.22558 14.7664 3.81886 16.3981 5.59449 17.547C7.59371 18.8421 9.74527 19.4984 11.984 19.4984C13.1924 19.4946 14.3923 19.2955 15.5371 18.9087C15.5523 18.9036 15.5658 18.8947 15.5765 18.8829C15.5872 18.8711 15.5947 18.8567 15.5983 18.8412C15.602 18.8256 15.6016 18.8094 15.5972 18.7941C15.5928 18.7788 15.5845 18.7648 15.5732 18.7535L14.5617 17.742C14.5384 17.7193 14.5096 17.703 14.4781 17.6948C14.4466 17.6866 14.4136 17.6867 14.3821 17.6951C13.5987 17.8968 12.793 17.9987 11.984 17.9984ZM23.0081 11.1828C21.7678 9.26464 20.1586 7.63526 18.3548 6.47042C16.3593 5.18042 14.1562 4.49839 11.984 4.49839C10.7884 4.50051 9.60169 4.70381 8.47355 5.09979C8.45852 5.10502 8.44507 5.11399 8.43446 5.12586C8.42386 5.13773 8.41645 5.1521 8.41293 5.16762C8.40942 5.18314 8.40991 5.1993 8.41436 5.21458C8.41882 5.22986 8.42709 5.24375 8.4384 5.25495L9.44855 6.2651C9.47207 6.28822 9.50127 6.30473 9.5332 6.31296C9.56513 6.32119 9.59867 6.32085 9.63043 6.31198C10.3978 6.10441 11.1891 5.99897 11.984 5.99839C13.8914 5.99839 15.7612 6.58104 17.5411 7.73276C19.1681 8.78276 20.6226 10.2584 21.7486 11.9984C21.7494 11.9995 21.7498 12.0008 21.7498 12.0021C21.7498 12.0035 21.7494 12.0048 21.7486 12.0059C20.9313 13.2926 19.917 14.443 18.7429 15.4151C18.7329 15.4234 18.7247 15.4337 18.7188 15.4453C18.7129 15.457 18.7096 15.4697 18.7089 15.4827C18.7083 15.4957 18.7103 15.5087 18.715 15.5209C18.7196 15.5331 18.7267 15.5441 18.7359 15.5534L19.6687 16.4857C19.6852 16.5024 19.7074 16.5123 19.7308 16.5134C19.7542 16.5145 19.7772 16.5068 19.7953 16.4918C21.0487 15.4364 22.1337 14.1959 23.0128 12.8131C23.1682 12.5694 23.2503 12.2862 23.2495 11.9972C23.2486 11.7082 23.1649 11.4255 23.0081 11.1828Z" fill="black"/>
<path id="Vector_2" d="M12.0001 7.4967C11.663 7.49652 11.327 7.53426 10.9984 7.6092C10.9818 7.61265 10.9664 7.62053 10.9539 7.63201C10.9415 7.6435 10.9323 7.65814 10.9275 7.6744C10.9227 7.69066 10.9224 7.70791 10.9266 7.72433C10.9309 7.74075 10.9394 7.75572 10.9515 7.76764L16.2292 13.0439C16.2411 13.0559 16.256 13.0645 16.2725 13.0688C16.2889 13.073 16.3061 13.0727 16.3224 13.0679C16.3387 13.063 16.3533 13.0539 16.3648 13.0414C16.3763 13.029 16.3841 13.0136 16.3876 12.997C16.5379 12.338 16.5377 11.6535 16.3872 10.9946C16.2366 10.3356 15.9396 9.71898 15.5181 9.19055C15.0965 8.66212 14.5614 8.23544 13.9524 7.9422C13.3433 7.64896 12.6761 7.49669 12.0001 7.4967ZM7.77103 10.9495C7.75911 10.9375 7.74414 10.9289 7.72772 10.9247C7.7113 10.9204 7.69405 10.9207 7.67779 10.9256C7.66153 10.9304 7.64688 10.9395 7.6354 10.952C7.62392 10.9644 7.61604 10.9798 7.61259 10.9964C7.4426 11.7391 7.46395 12.5127 7.67463 13.2449C7.88532 13.977 8.27844 14.6437 8.81717 15.1824C9.35589 15.7212 10.0226 16.1143 10.7547 16.325C11.4869 16.5357 12.2606 16.557 13.0032 16.387C13.0198 16.3836 13.0352 16.3757 13.0476 16.3642C13.0601 16.3527 13.0692 16.3381 13.0741 16.3218C13.0789 16.3056 13.0792 16.2883 13.075 16.2719C13.0707 16.2555 13.0621 16.2405 13.0501 16.2286L7.77103 10.9495Z" fill="black"/>
</g>
</svg>
