<svg width="34" height="34" viewBox="0 0 34 34" fill="none" xmlns="http://www.w3.org/2000/svg">
<path d="M2.8335 14.1667L15.2302 4.24929C16.2649 3.42146 17.7354 3.42146 18.7701 4.24929L31.1668 14.1667" stroke="black" stroke-width="2.125" stroke-linecap="round" stroke-linejoin="round"/>
<path d="M13.4264 5.73678L7.75972 10.341C6.73087 11.1769 6.21643 11.5949 5.94142 12.1727C5.66641 12.7504 5.66641 13.4133 5.66641 14.7389V19.8334C5.66641 25.176 5.66641 27.8474 7.32614 29.507C8.98588 31.1668 11.6572 31.1668 16.9997 31.1668C22.3423 31.1668 25.0137 31.1668 26.6733 29.507C28.3331 27.8474 28.3331 25.176 28.3331 19.8334V14.7389C28.3331 13.4133 28.3331 12.7504 28.0581 12.1727C27.783 11.5949 27.2686 11.1769 26.2398 10.341L20.5731 5.73678C18.8615 4.3461 18.0057 3.65076 16.9997 3.65076C15.9938 3.65076 15.138 4.3461 13.4264 5.73678Z" stroke="black" stroke-width="2.125"/>
<path d="M13.8126 23.021H20.1876" stroke="black" stroke-width="2.125" stroke-linecap="round"/>
</svg>
