<svg width="178" height="46" viewBox="0 0 178 46" fill="none" xmlns="http://www.w3.org/2000/svg">
<path d="M17.9107 44.2997C27.1986 44.2997 32.6858 38.765 32.6858 29.4771V25.9615H18.4333V30.3085H27.4361V30.8786C27.3649 36.0808 23.5167 39.5964 17.9582 39.5964C11.4258 39.5964 7.34006 34.608 7.34006 26.4128V26.389C7.34006 18.3601 11.307 13.5855 17.8632 13.5855C22.329 13.5855 25.4408 15.8897 26.8898 19.8566L26.961 20.1179H32.4245L32.3295 19.6903C30.9042 13.5142 25.8684 8.88216 17.8394 8.88216C8.10019 8.88216 1.92409 15.6046 1.92409 26.4128V26.4365C1.92409 37.4585 8.10019 44.2997 17.9107 44.2997ZM48.0073 44.2285C55.1573 44.2285 59.8607 39.2876 59.8607 31.2349V31.1874C59.8607 23.1822 55.1098 18.2651 47.9835 18.2651C40.881 18.2651 36.1539 23.206 36.1539 31.1874V31.2349C36.1539 39.2638 40.8335 44.2285 48.0073 44.2285ZM48.031 39.9289C44.0166 39.9289 41.4036 36.7696 41.4036 31.2349V31.1874C41.4036 25.7239 44.0403 22.5646 47.9835 22.5646C51.998 22.5646 54.611 25.7239 54.611 31.1874V31.2349C54.611 36.7459 52.0455 39.9289 48.031 39.9289ZM64.0176 43.7296H69.1486V9.45227H64.0176V43.7296ZM83.7574 44.2285C87.3443 44.2285 90.0998 42.4231 91.5963 39.5014H91.6913V43.7296H96.846V9.45227H91.6913V22.9922H91.5963C90.0998 20.0467 87.2493 18.2651 83.7099 18.2651C77.4388 18.2651 73.3055 23.2535 73.3055 31.2111V31.2349C73.3055 39.1926 77.3913 44.2285 83.7574 44.2285ZM85.1114 39.8102C81.0494 39.8102 78.5552 36.5558 78.5552 31.2349V31.2111C78.5552 25.9377 81.0732 22.6596 85.1114 22.6596C88.9596 22.6596 91.7151 26.0327 91.7151 31.2111V31.2349C91.7151 36.4371 88.9833 39.8102 85.1114 39.8102ZM130.387 44.2285C134.188 44.2285 136.729 42.4944 138.036 39.9764H138.155V43.7296H143.309V18.7402H138.155V33.3253C138.155 37.221 135.827 39.8102 132.216 39.8102C128.653 39.8102 126.895 37.7198 126.895 33.9429V18.7402H121.764V34.9406C121.764 40.6891 124.9 44.2285 130.387 44.2285ZM146.516 43.7296H152.075L157.609 34.5367H157.728L163.263 43.7296H168.916L160.792 31.0924L169.011 18.7402H163.334L157.966 27.7905H157.847L152.407 18.7402H146.635L154.783 31.2586L146.516 43.7296Z" fill="#242E38" fill-opacity="0.935"/>
<path d="M105.94 43.2432V33.9116M105.94 43.2432H106.951C108.679 43.2432 110.092 41.8633 110.132 40.1351V40.1351M105.94 43.2432H113.828H118.228C118.459 43.2432 118.646 43.0563 118.646 42.8256V42.8256C118.646 42.6675 118.556 42.5229 118.415 42.4522L116.646 41.568C116.359 41.4242 116.053 41.3194 115.738 41.2564L110.132 40.1351M105.94 3.58386H106.079C107.367 3.58386 108.412 4.62834 108.412 5.91677V5.91677V10.5826M105.94 3.58386V16.4528M105.94 3.58386V3.58386C106.66 3.21473 106.571 2.15916 105.799 1.91573L104.285 1.43767C103.119 1.06975 102.243 2.51287 103.108 3.37712V3.37712C103.346 3.61586 103.677 3.73959 104.014 3.71642L105.94 3.58386ZM108.412 10.5826V19.9142V22.2471M108.412 10.5826V12.4988C108.412 14.181 107.452 15.7159 105.94 16.4528V16.4528M105.94 16.4528V24.58M108.978 27.8992L108.412 22.2471M108.978 27.8992L108.594 25.2278C108.473 24.3861 108.412 23.5367 108.412 22.6863V22.2471M108.978 27.8992V32.2141L108.88 33.3181C108.742 34.8691 106.669 35.2876 105.94 33.9116V33.9116M108.978 27.8992L109.479 33.5952C109.531 34.1908 109.534 34.7897 109.488 35.3858L109.408 36.4076C109.309 37.6926 109.559 38.9807 110.132 40.1351V40.1351M105.94 24.58V33.9116M105.94 24.58V24.58C106.815 24.1771 107.561 23.5373 108.091 22.7331L108.412 22.2471" stroke="#242E38" stroke-opacity="0.935" stroke-width="1.07027"/>
<path d="M104.049 42.5677V43.784C104.049 44.4557 104.593 45.0002 105.265 45.0002V45.0002H106.481" stroke="#242E38" stroke-opacity="0.935" stroke-width="1.07027"/>
</svg>
