<svg width="127" height="89" viewBox="0 0 127 89" fill="none" xmlns="http://www.w3.org/2000/svg">
<path d="M66 8V10.3636C66 11.669 67.0582 12.7272 68.3636 12.7272V12.7272" stroke="black" stroke-width="1.89089"/>
<path d="M18.1614 83.6481C24.2741 83.6481 27.9842 79.7255 27.9842 73.4004V71.4227H18.4393V73.384H25.7614V73.907C25.7614 78.467 22.7214 81.5724 18.1614 81.5724C13.0947 81.5724 9.87494 77.6335 9.87494 71.341V71.3247C9.87494 65.1629 13.0457 61.3874 18.1614 61.3874C21.7408 61.3874 24.3395 63.2507 25.4509 66.732L25.5163 66.8954H27.8371L27.7718 66.6339C26.6767 62.2373 23.3262 59.3117 18.1614 59.3117C11.7382 59.3117 7.60311 63.9698 7.60311 71.3247V71.341C7.60311 78.843 11.7545 83.6481 18.1614 83.6481ZM38.1503 83.5828C42.7757 83.5828 45.8974 80.1832 45.8974 74.7733V74.7406C45.8974 69.3307 42.7593 65.9638 38.1503 65.9638C33.5249 65.9638 30.4032 69.347 30.4032 74.7406V74.7733C30.4032 80.1668 33.5085 83.5664 38.1503 83.5828ZM38.1666 81.6541C34.8161 81.6378 32.626 79.0881 32.626 74.7733V74.7406C32.626 70.4584 34.8324 67.8924 38.1503 67.8924C41.4681 67.8924 43.6909 70.4421 43.6909 74.7406V74.7733C43.6909 79.0718 41.4845 81.6541 38.1666 81.6541ZM48.921 83.2722H51.0785V59.6877H48.921V83.2722ZM61.2935 83.5828C63.974 83.5828 66.0987 82.0791 67.0794 79.7419H67.1447V83.2722H69.3185V59.6877H67.1447V69.821H67.0957C66.1314 67.4675 63.9413 65.9638 61.2772 65.9638C57.0277 65.9638 54.1021 69.4451 54.1021 74.7569V74.7733C54.1021 80.0851 57.0114 83.5828 61.2935 83.5828ZM61.7022 81.6541C58.4333 81.6541 56.3249 78.9737 56.3249 74.7733V74.7569C56.3249 70.5892 58.4333 67.8924 61.7022 67.8924C64.8729 67.8924 67.1611 70.6709 67.1611 74.7569V74.7733C67.1611 78.8756 64.9056 81.6541 61.7022 81.6541ZM73.5353 83.2722H87.5749V81.2455H75.7581V59.6877H73.5353V83.2722ZM96.0248 83.5664C98.7706 83.5664 100.667 82.2098 101.533 80.3793H101.582V83.2722H103.756V66.2743H101.582V76.3423C101.582 79.5131 99.6205 81.6378 96.6459 81.6378C93.7693 81.6378 92.2003 79.9544 92.2003 76.7999V66.2743H90.0265V77.1595C90.0265 81.1475 92.2657 83.5664 96.0248 83.5664ZM105.978 83.2722H108.414L113.088 76.2933H113.137L117.795 83.2722H120.23L114.347 74.6425L120.296 66.2743H117.844L113.219 73.0898H113.153L108.495 66.2743H106.044L111.96 74.7242L105.978 83.2722Z" fill="black"/>
<path d="M27.9842 71.4227H28.7876V70.6194H27.9842V71.4227ZM18.4393 71.4227V70.6194H17.6359V71.4227H18.4393ZM18.4393 73.384H17.6359V74.1874H18.4393V73.384ZM25.7614 73.384H26.5648V72.5807H25.7614V73.384ZM25.4509 66.732L24.6856 66.9763L24.6943 67.0037L24.705 67.0303L25.4509 66.732ZM25.5163 66.8954L24.7704 67.1938L24.9724 67.6988H25.5163V66.8954ZM27.8371 66.8954V67.6988H28.866L28.6165 66.7006L27.8371 66.8954ZM27.7718 66.6339L26.9922 66.8281L26.9924 66.8287L27.7718 66.6339ZM18.1614 84.4515C21.3942 84.4515 24.0755 83.4097 25.9461 81.451C27.8122 79.4969 28.7876 76.7184 28.7876 73.4004H27.1809C27.1809 76.4075 26.3012 78.7529 24.7841 80.3414C23.2714 81.9253 21.0413 82.8448 18.1614 82.8448V84.4515ZM28.7876 73.4004V71.4227H27.1809V73.4004H28.7876ZM27.9842 70.6194H18.4393V72.2261H27.9842V70.6194ZM17.6359 71.4227V73.384H19.2426V71.4227H17.6359ZM18.4393 74.1874H25.7614V72.5807H18.4393V74.1874ZM24.9581 73.384V73.907H26.5648V73.384H24.9581ZM24.9581 73.907C24.9581 76.0051 24.2619 77.7089 23.0999 78.8852C21.939 80.0604 20.2539 80.7691 18.1614 80.7691V82.3758C20.629 82.3758 22.7439 81.5318 24.2429 80.0143C25.7409 78.4979 26.5648 76.369 26.5648 73.907H24.9581ZM18.1614 80.7691C15.8551 80.7691 14.0184 79.8821 12.7418 78.31C11.4506 76.7199 10.6783 74.3586 10.6783 71.341H9.0716C9.0716 74.6159 9.90915 77.3703 11.4945 79.3228C13.0945 81.2933 15.401 82.3758 18.1614 82.3758V80.7691ZM10.6783 71.341V71.3247H9.0716V71.341H10.6783ZM10.6783 71.3247C10.6783 68.3735 11.4377 66.0907 12.7163 64.5605C13.9806 63.0473 15.8169 62.1908 18.1614 62.1908V60.5841C15.3903 60.5841 13.0833 61.6154 11.4833 63.5303C9.89752 65.4283 9.0716 68.1141 9.0716 71.3247H10.6783ZM18.1614 62.1908C19.8088 62.1908 21.1807 62.6178 22.2584 63.4034C23.3359 64.1888 24.1734 65.372 24.6856 66.9763L26.2162 66.4876C25.6169 64.6106 24.5994 63.1216 23.2048 62.105C21.8105 61.0887 20.0934 60.5841 18.1614 60.5841V62.1908ZM24.705 67.0303L24.7704 67.1938L26.2622 66.5971L26.1968 66.4336L24.705 67.0303ZM25.5163 67.6988H27.8371V66.0921H25.5163V67.6988ZM28.6165 66.7006L28.5511 66.4391L26.9924 66.8287L27.0578 67.0902L28.6165 66.7006ZM28.5513 66.4397C27.9669 64.0935 26.7691 62.0998 24.991 60.6939C23.211 59.2866 20.9002 58.5084 18.1614 58.5084V60.1151C20.5873 60.1151 22.5342 60.7997 23.9945 61.9543C25.4566 63.1103 26.4815 64.7777 26.9922 66.8281L28.5513 66.4397ZM18.1614 58.5084C14.7436 58.5084 11.8755 59.7545 9.87087 62.029C7.87562 64.2928 6.79976 67.501 6.79976 71.3247H8.40646C8.40646 67.7935 9.39813 64.9953 11.0762 63.0913C12.7449 61.198 15.156 60.1151 18.1614 60.1151V58.5084ZM6.79976 71.3247V71.341H8.40646V71.3247H6.79976ZM6.79976 71.341C6.79976 75.235 7.87781 78.5133 9.87047 80.8315C11.8738 83.162 14.7428 84.4515 18.1614 84.4515V82.8448C15.1731 82.8448 12.763 81.7317 11.0889 79.7841C9.40411 77.8242 8.40646 74.9489 8.40646 71.341H6.79976ZM38.1503 83.5828L38.1474 84.3861H38.1503V83.5828ZM38.1666 81.6541L38.1627 82.4575H38.1666V81.6541ZM38.1503 84.3861C40.6711 84.3861 42.8338 83.4534 44.3584 81.7409C45.8752 80.037 46.7007 77.6299 46.7007 74.7733H45.094C45.094 77.3266 44.3587 79.3242 43.1583 80.6726C41.9657 82.0123 40.2548 82.7794 38.1503 82.7794V84.3861ZM46.7007 74.7733V74.7406H45.094V74.7733H46.7007ZM46.7007 74.7406C46.7007 71.8828 45.8704 69.483 44.3504 67.7873C42.8233 66.0836 40.661 65.1604 38.1503 65.1604V66.7671C40.2485 66.7671 41.9599 67.5275 43.154 68.8597C44.3553 70.1999 45.094 72.1885 45.094 74.7406H46.7007ZM38.1503 65.1604C35.6308 65.1604 33.4682 66.0881 31.9432 67.7942C30.4257 69.4921 29.5998 71.8915 29.5998 74.7406H31.2065C31.2065 72.1961 31.9415 70.2071 33.1412 68.865C34.3334 67.5311 36.0444 66.7671 38.1503 66.7671V65.1604ZM29.5998 74.7406V74.7733H31.2065V74.7406H29.5998ZM29.5998 74.7733C29.5998 77.6213 30.421 80.0242 31.9356 81.7282C33.4579 83.4408 35.62 84.3772 38.1474 84.3861L38.1531 82.7794C36.0389 82.772 34.3273 82.0004 33.1365 80.6608C31.938 79.3124 31.2065 77.3188 31.2065 74.7733H29.5998ZM38.1705 80.8508C36.7149 80.8437 35.5637 80.2954 34.7611 79.3164C33.9446 78.3203 33.4293 76.8029 33.4293 74.7733H31.8226C31.8226 77.0585 32.4024 78.9734 33.5186 80.3349C34.6487 81.7135 36.2678 82.4482 38.1627 82.4575L38.1705 80.8508ZM33.4293 74.7733V74.7406H31.8226V74.7733H33.4293ZM33.4293 74.7406C33.4293 72.7299 33.9474 71.2158 34.7648 70.2205C35.5686 69.2416 36.7158 68.6957 38.1503 68.6957V67.0891C36.2669 67.0891 34.6519 67.8262 33.5231 69.2009C32.4077 70.5591 31.8226 72.4691 31.8226 74.7406H33.4293ZM38.1503 68.6957C39.5868 68.6957 40.7382 69.239 41.5454 70.2162C42.3657 71.2092 42.8876 72.7224 42.8876 74.7406H44.4943C44.4943 72.4603 43.9047 70.5494 42.7841 69.1929C41.6505 67.8206 40.0316 67.0891 38.1503 67.0891V68.6957ZM42.8876 74.7406V74.7733H44.4943V74.7406H42.8876ZM42.8876 74.7733C42.8876 76.7928 42.3691 78.3158 41.5508 79.3174C40.7462 80.3023 39.5993 80.8508 38.1666 80.8508V82.4575C40.0518 82.4575 41.667 81.7148 42.7951 80.3339C43.9095 78.9697 44.4943 77.0522 44.4943 74.7733H42.8876ZM48.921 83.2722H48.1177V84.0756H48.921V83.2722ZM51.0785 83.2722V84.0756H51.8818V83.2722H51.0785ZM51.0785 59.6877H51.8818V58.8843H51.0785V59.6877ZM48.921 59.6877V58.8843H48.1177V59.6877H48.921ZM48.921 84.0756H51.0785V82.4689H48.921V84.0756ZM51.8818 83.2722V59.6877H50.2751V83.2722H51.8818ZM51.0785 58.8843H48.921V60.491H51.0785V58.8843ZM48.1177 59.6877V83.2722H49.7244V59.6877H48.1177ZM67.0794 79.7419V78.9385H66.5452L66.3386 79.4311L67.0794 79.7419ZM67.1447 79.7419H67.9481V78.9385H67.1447V79.7419ZM67.1447 83.2722H66.3414V84.0756H67.1447V83.2722ZM69.3185 83.2722V84.0756H70.1219V83.2722H69.3185ZM69.3185 59.6877H70.1219V58.8843H69.3185V59.6877ZM67.1447 59.6877V58.8843H66.3414V59.6877H67.1447ZM67.1447 69.821V70.6244H67.9481V69.821H67.1447ZM67.0957 69.821L66.3523 70.1256L66.5567 70.6244H67.0957V69.821ZM61.2935 84.3861C64.3071 84.3861 66.718 82.6795 67.8201 80.0527L66.3386 79.4311C65.4794 81.4787 63.6409 82.7794 61.2935 82.7794V84.3861ZM67.0794 80.5452H67.1447V78.9385H67.0794V80.5452ZM66.3414 79.7419V83.2722H67.9481V79.7419H66.3414ZM67.1447 84.0756H69.3185V82.4689H67.1447V84.0756ZM70.1219 83.2722V59.6877H68.5152V83.2722H70.1219ZM69.3185 58.8843H67.1447V60.491H69.3185V58.8843ZM66.3414 59.6877V69.821H67.9481V59.6877H66.3414ZM67.1447 69.0177H67.0957V70.6244H67.1447V69.0177ZM67.8391 69.5164C66.7506 66.8599 64.2659 65.1604 61.2772 65.1604V66.7671C63.6166 66.7671 65.5122 68.075 66.3523 70.1256L67.8391 69.5164ZM61.2772 65.1604C58.9149 65.1604 56.8926 66.1363 55.4758 67.858C54.0696 69.5668 53.2988 71.959 53.2988 74.7569H54.9055C54.9055 72.243 55.5975 70.2386 56.7164 68.8789C57.8248 67.532 59.3901 66.7671 61.2772 66.7671V65.1604ZM53.2988 74.7569V74.7733H54.9055V74.7569H53.2988ZM53.2988 74.7733C53.2988 77.5701 54.0649 79.9663 55.471 81.6796C56.8882 83.4064 58.9152 84.3861 61.2935 84.3861V82.7794C59.3898 82.7794 57.821 82.0103 56.713 80.6603C55.594 79.2969 54.9055 77.2883 54.9055 74.7733H53.2988ZM61.7021 80.8508C60.3099 80.8508 59.2008 80.2906 58.4203 79.2936C57.6245 78.2773 57.1283 76.7481 57.1283 74.7733H55.5216C55.5216 76.9989 56.0795 78.9102 57.1552 80.2841C58.2461 81.6775 59.8256 82.4575 61.7021 82.4575V80.8508ZM57.1283 74.7733V74.7569H55.5216V74.7733H57.1283ZM57.1283 74.7569C57.1283 72.7997 57.6239 71.2742 58.4203 70.257C59.2017 69.2589 60.3114 68.6957 61.7021 68.6957V67.0891C59.824 67.0891 58.2452 67.8743 57.1552 69.2665C56.0801 70.6397 55.5216 72.5464 55.5216 74.7569H57.1283ZM61.7021 68.6957C64.274 68.6957 66.3577 70.9415 66.3577 74.7569H67.9644C67.9644 70.4003 65.4718 67.0891 61.7021 67.0891V68.6957ZM66.3577 74.7569V74.7733H67.9644V74.7569H66.3577ZM66.3577 74.7733C66.3577 76.6831 65.8327 78.2146 65.0052 79.2508C64.1878 80.2743 63.0508 80.8508 61.7021 80.8508V82.4575C63.5569 82.4575 65.1495 81.6447 66.2606 80.2534C67.3617 78.8748 67.9644 76.9659 67.9644 74.7733H66.3577ZM73.5353 83.2722H72.7319V84.0756H73.5353V83.2722ZM87.5749 83.2722V84.0756H88.3782V83.2722H87.5749ZM87.5749 81.2455H88.3782V80.4422H87.5749V81.2455ZM75.7581 81.2455H74.9547V82.0489H75.7581V81.2455ZM75.7581 59.6877H76.5614V58.8843H75.7581V59.6877ZM73.5353 59.6877V58.8843H72.7319V59.6877H73.5353ZM73.5353 84.0756H87.5749V82.4689H73.5353V84.0756ZM88.3782 83.2722V81.2455H86.7715V83.2722H88.3782ZM87.5749 80.4422H75.7581V82.0489H87.5749V80.4422ZM76.5614 81.2455V59.6877H74.9547V81.2455H76.5614ZM75.7581 58.8843H73.5353V60.491H75.7581V58.8843ZM72.7319 59.6877V83.2722H74.3386V59.6877H72.7319ZM101.533 80.3793V79.576H101.024L100.807 80.0357L101.533 80.3793ZM101.582 80.3793H102.385V79.576H101.582V80.3793ZM101.582 83.2722H100.778V84.0756H101.582V83.2722ZM103.756 83.2722V84.0756H104.559V83.2722H103.756ZM103.756 66.2743H104.559V65.471H103.756V66.2743ZM101.582 66.2743V65.471H100.778V66.2743H101.582ZM92.2003 66.2743H93.0036V65.471H92.2003V66.2743ZM90.0265 66.2743V65.471H89.2232V66.2743H90.0265ZM96.0248 84.3698C99.0633 84.3698 101.252 82.85 102.259 80.7229L100.807 80.0357C100.081 81.5697 98.478 82.7631 96.0248 82.7631V84.3698ZM101.533 81.1827H101.582V79.576H101.533V81.1827ZM100.778 80.3793V83.2722H102.385V80.3793H100.778ZM101.582 84.0756H103.756V82.4689H101.582V84.0756ZM104.559 83.2722V66.2743H102.952V83.2722H104.559ZM103.756 65.471H101.582V67.0777H103.756V65.471ZM100.778 66.2743V76.3423H102.385V66.2743H100.778ZM100.778 76.3423C100.778 77.7624 100.341 78.8787 99.6409 79.6322C98.9457 80.3801 97.9329 80.8345 96.6459 80.8345V82.4412C98.3335 82.4412 99.7886 81.8332 100.818 80.726C101.842 79.6244 102.385 78.0929 102.385 76.3423H100.778ZM96.6459 80.8345C95.3653 80.8345 94.4947 80.4641 93.9349 79.8571C93.3653 79.2396 93.0036 78.2541 93.0036 76.7999H91.3969C91.3969 78.5002 91.8198 79.9337 92.7538 80.9464C93.6977 81.9698 95.0499 82.4412 96.6459 82.4412V80.8345ZM93.0036 76.7999V66.2743H91.3969V76.7999H93.0036ZM92.2003 65.471H90.0265V67.0777H92.2003V65.471ZM89.2232 66.2743V77.1595H90.8299V66.2743H89.2232ZM89.2232 77.1595C89.2232 79.3 89.8256 81.1176 91.0287 82.4066C92.2384 83.7027 93.9674 84.3698 96.0248 84.3698V82.7631C94.3231 82.7631 93.0529 82.2206 92.2033 81.3103C91.3469 80.3928 90.8299 79.007 90.8299 77.1595H89.2232ZM105.978 83.2722L105.32 82.8116L104.436 84.0756H105.978V83.2722ZM108.414 83.2722V84.0756H108.842L109.081 83.7193L108.414 83.2722ZM113.088 76.2933V75.4899H112.659L112.421 75.8462L113.088 76.2933ZM113.137 76.2933L113.805 75.8473L113.567 75.4899H113.137V76.2933ZM117.795 83.2722L117.127 83.7182L117.366 84.0756H117.795V83.2722ZM120.23 83.2722V84.0756H121.75L120.894 82.8197L120.23 83.2722ZM114.347 74.6425L113.692 74.177L113.368 74.6329L113.683 75.0951L114.347 74.6425ZM120.296 66.2743L120.951 66.7398L121.853 65.471H120.296V66.2743ZM117.844 66.2743V65.471H117.419L117.179 65.8232L117.844 66.2743ZM113.219 73.0898V73.8932H113.644L113.884 73.5409L113.219 73.0898ZM113.153 73.0898L112.49 73.5431L112.729 73.8932H113.153V73.0898ZM108.495 66.2743L109.159 65.821L108.919 65.471H108.495V66.2743ZM106.044 66.2743V65.471H104.501L105.386 66.7351L106.044 66.2743ZM111.96 74.7242L112.618 75.1848L112.941 74.7241L112.618 74.2635L111.96 74.7242ZM105.978 84.0756H108.414V82.4689H105.978V84.0756ZM109.081 83.7193L113.756 76.7403L112.421 75.8462L107.746 82.8252L109.081 83.7193ZM113.088 77.0966H113.137V75.4899H113.088V77.0966ZM112.469 76.7393L117.127 83.7182L118.463 82.8262L113.805 75.8473L112.469 76.7393ZM117.795 84.0756H120.23V82.4689H117.795V84.0756ZM120.894 82.8197L115.01 74.19L113.683 75.0951L119.567 83.7248L120.894 82.8197ZM115.001 75.108L120.951 66.7398L119.641 65.8088L113.692 74.177L115.001 75.108ZM120.296 65.471H117.844V67.0777H120.296V65.471ZM117.179 65.8232L112.554 72.6387L113.884 73.5409L118.509 66.7255L117.179 65.8232ZM113.219 72.2865H113.153V73.8932H113.219V72.2865ZM113.817 72.6365L109.159 65.821L107.832 66.7276L112.49 73.5431L113.817 72.6365ZM108.495 65.471H106.044V67.0777H108.495V65.471ZM105.386 66.7351L111.302 75.185L112.618 74.2635L106.702 65.8136L105.386 66.7351ZM111.302 74.2636L105.32 82.8116L106.637 83.7328L112.618 75.1848L111.302 74.2636Z" fill="black"/>
<path d="M64.1817 48.2722H66.3112C72.5462 48.2722 77.2225 42.568 75.9997 36.4542L74.6539 28.3795C74.0081 24.5047 71.6956 21.1082 68.3272 19.0872L64.0161 16.5005C62.6525 15.6823 61.8181 14.2086 61.8181 12.6183C61.8181 10.1178 63.8451 8.09083 66.3455 8.09083H71.7918C73.725 8.09083 74.9825 6.0563 74.1179 4.32712C73.8094 3.71019 73.2685 3.24108 72.6142 3.02296L68.5413 1.66534C67.2193 1.22466 65.8348 1 64.4413 1H57.0908H52.3636C51.0582 1 50 2.05823 50 3.36361C50 4.669 51.0582 5.72722 52.3636 5.72722C53.669 5.72722 54.7272 6.78545 54.7272 8.09083V22.2725V38.8178C54.7272 44.0393 58.9601 48.2722 64.1817 48.2722Z" fill="black" stroke="black" stroke-width="1.55998"/>
</svg>