<svg width="260" height="55" viewBox="0 0 260 55" fill="none" xmlns="http://www.w3.org/2000/svg">
<path d="M14.3286 13.75L25.4859 2.59273C26.9178 1.1608 29.2394 1.1608 30.6713 2.59273L41.8286 13.75H14.3286ZM14.3286 13.75L3.17134 24.9073C1.73942 26.3392 1.73942 28.6608 3.17134 30.0927L14.3286 41.25M14.3286 13.75V41.25M14.3286 41.25L25.4859 52.4073C26.9178 53.8392 29.2394 53.8392 30.6713 52.4073L41.8286 41.25M14.3286 41.25H41.8286M41.8286 41.25L54.9526 28.1259C55.1836 27.895 55.02 27.5 54.6934 27.5H28.9638C28.6371 27.5 28.4736 27.895 28.7045 28.1259L41.8286 41.25Z" stroke="#020202" stroke-width="2.90422"/>
<g clip-path="url(#clip0_310_3015)">
<path d="M160.815 40.1575H150.134V27.6963V14.3439H160.815C176.723 15.6315 176.73 38.9552 160.815 40.1575Z" stroke="#020202" stroke-width="2.61379"/>
<path d="M233.5 41.1823H230.835L242.868 27.3879L231.285 13.4952H233.536L244.341 25.6995L255.146 13.4952H257.397L245.751 27.463L256.721 41.1823H254.47L244.341 29.1542L233.5 41.1823Z" fill="#020202"/>
<path d="M244.341 29.1542L233.5 41.1823H230.835L244.341 25.6995M244.341 29.1542L254.47 41.1823H256.721L244.341 25.6995M244.341 29.1542L257.397 13.4952H255.146L244.341 25.6995M244.341 29.1542L231.285 13.4952H233.536L244.341 25.6995" stroke="#020202" stroke-width="0.856744"/>
<path d="M89.6075 17.9044L87.2865 16.357C86.463 15.808 85.5792 15.3553 84.6525 15.0078V15.0078C79.7503 13.1695 74.2108 14.4799 70.6385 18.3074V18.3074C65.1039 24.2373 66.3304 33.7675 73.2089 38.0665V38.0665C76.7906 40.3051 81.2416 40.6478 85.1238 38.984L87.234 38.0796L90.7943 35.7061V27.3986" stroke="#020202" stroke-width="2.61379"/>
<path d="M119.135 34.8348C114.063 42.1087 103.201 41.9194 98.2548 34.5597C95.2351 30.0668 95.3894 24.1 98.6855 19.8059C103.624 13.3715 113.336 13.2935 118.488 19.5583C122.079 23.9246 122.368 30.1975 119.135 34.8348Z" stroke="#020202" stroke-width="2.61379"/>
<path d="M126.399 13.1572V40.1584H145.388" stroke="#020202" stroke-width="2.61379"/>
<path d="M178.617 13.1572V40.1584H197.605" stroke="#020202" stroke-width="2.61379"/>
<path d="M201.696 13.1572V26.8952C201.696 28.0205 201.778 29.1442 201.943 30.2573V30.2573C203.87 43.2685 222.615 43.3307 224.63 30.3329V30.3329C224.81 29.1696 224.901 27.9942 224.901 26.817L224.901 13.1572" stroke="#020202" stroke-width="2.61379"/>
<path d="M161.66 40.6805C161.66 41.0538 162.167 41.1875 160.816 41.3564C159.971 41.3564 159.971 41.0538 159.971 40.6805C159.971 40.3072 160.349 40.0046 160.816 40.0046C161.282 40.0046 161.66 40.3072 161.66 40.6805Z" fill="#020202"/>
</g>
<defs>
<clipPath id="clip0_310_3015">
<rect width="196.348" height="31.0912" fill="white" transform="translate(63.3176 11.9543)"/>
</clipPath>
</defs>
</svg>