<svg width="113" height="113" viewBox="0 0 113 113" fill="none" xmlns="http://www.w3.org/2000/svg">
<path d="M100.052 56.5003C100.052 32.4472 80.553 12.9482 56.4998 12.9482C32.4467 12.9482 12.9478 32.4472 12.9478 56.5003C12.9478 80.5535 32.4467 100.052 56.4998 100.052C80.553 100.052 100.052 80.5535 100.052 56.5003Z" stroke="#1B1B1B" stroke-width="0.5"/>
<path d="M44.625 60.9198V52.9767C44.625 45.1243 44.625 41.198 47.1435 39.8577C49.662 38.5175 52.9185 40.7107 59.4317 45.0971L65.6095 49.2577C71.1326 52.9771 73.894 54.837 73.8377 57.4305C73.7817 60.0242 70.9421 61.7625 65.2635 65.2395L59.0854 69.0219C52.6827 72.9419 49.4814 74.9019 47.0532 73.5413C44.625 72.1809 44.625 68.4272 44.625 60.9198Z" stroke="#1B1B1B" stroke-width="0.5" stroke-linecap="round" stroke-linejoin="round"/>
</svg>
